<?xml version="1.0" encoding="utf-8"?>
<svg xmlns="http://www.w3.org/2000/svg" viewBox="0 0 512 512">
  <path d="M 330 56 C 320 59 312 67 312 78 C 311 82 313 87 315 91 C 315 92 316 92 316 92 C 316 92 315 93 313 93 C 297 94 286 95 274 98 C 234 106 201 121 180 143 C 167 156 159 172 156 188 C 155 192 155 193 155 200 C 155 208 155 211 157 217 C 164 248 190 274 233 295 C 252 305 268 316 279 328 C 283 332 285 335 288 339 C 297 353 298 365 292 375 C 287 382 280 388 269 394 C 233 412 172 415 103 401 C 96 399 93 399 90 400 C 81 401 74 408 71 417 C 70 419 70 425 71 428 C 73 434 76 439 81 442 C 85 444 87 445 99 447 C 144 456 183 458 219 454 C 250 451 278 443 298 431 C 306 426 313 421 319 415 C 326 408 331 401 335 393 C 338 386 340 379 342 372 C 343 367 342 354 342 349 C 339 334 333 321 323 308 C 313 294 298 281 280 269 C 272 264 265 260 253 254 C 243 249 238 245 232 241 C 214 230 204 217 202 205 C 201 203 201 197 202 195 C 204 184 214 172 230 162 C 235 160 244 155 249 153 C 286 138 335 135 387 143 C 387 143 388 143 388 143 C 388 144 383 157 378 174 C 372 192 368 204 368 206 C 367 211 368 217 371 222 C 378 232 392 235 403 228 C 406 226 409 223 411 219 C 412 218 441 131 441 129 C 442 127 441 122 441 120 C 440 115 436 110 433 107 C 431 106 346 59 343 58 C 340 56 335 56 330 56 Z"/>
</svg>
